# xmcd CD database file
#
# Track frame offsets:
#	150
#	10609
#	23164
#	38052
#	52903
#	61911
#	75015
#	90942
#	105097
#	118480
#	130985
#	142622
#	154787
#	168105
#
# Disc length: 2433 seconds
#
# Revision: 0
# Processed by: cddbd v1.5.2PL0 Copyright (c) Steve Scherf et al.
# Submitted via: CDex 1.70beta2
#
DISCID=8e097f0e
DTITLE=Louis Armstrong - Louis Armstrong - Hello Louis - The hit 1963-1969 CD2/2
DYEAR=2010
DGENRE=Jazz
TTITLE0=Louis Armstrong - 2_01 Louis Armstrong's Orchestra and Chorus - What ￠ wonderful world
TTITLE1=Louis Armstrong - 2_02 Louis Armstrong and The All Stars - Cabaret
TTITLE2=Louis Armstrong - 2_03 Louis Armstrong and The All Stars - The_Home fire
TTITLE3=Louis Armstrong - 2_04 Louis Armstrong and The All Stars - Dream a little dream of me
TTITLE4=Louis Armstrong - 2_05 Louis Armstrong and Clifford Brown - Give me your kisses (I'll give you my heart)
TTITLE5=Louis Armstrong - 2_06 Louis Armstrong's Orchestra and Chorus - The sunshine of love
TTITLE6=Louis Armstrong - 2_07 Louis Armstrong and The All Stars - Hello brother
TTITLE7=Louis Armstrong - 2_08 Louis Armstrong and The All Stars - There must be a way
TTITLE8=Louis Armstrong - 2_09 Louis Armstrong and The All Stars - Fantastic, that's you
TTITLE9=Louis Armstrong - 2_10 Louis Armstrong and The All Stars - I guess I'll get the papers an go home
TTITLE10=Louis Armstrong - 2_11 Louis Armstrong and The All Stars - Hellzapoppin'
TTITLE11=Louis Armstrong - 2_12 Louis Armstrong and Clifford Brown - Life of the party
TTITLE12=Louis Armstrong - 2_13 Louis Armstrong and Clifford Brown - The Kinda love song (that'all i want the world to remenber me by)
TTITLE13=Louis Armstrong - 2_14 Louis Armstrong and Clifford Brown - We have all the time in the world
EXTD=YEAR: 2010
EXTT0=
EXTT1=
EXTT2=
EXTT3=
EXTT4=
EXTT5=
EXTT6=
EXTT7=
EXTT8=
EXTT9=
EXTT10=
EXTT11=
EXTT12=
EXTT13=
PLAYORDER=
